<svg width="937" height="251" viewBox="0 0 937 251" fill="none" xmlns="http://www.w3.org/2000/svg">
<path d="M51.7543 125C78.2184 162.505 110.672 186.394 184 212L95.5 39L7.5 212C72.7575 190.854 107.496 167.891 137.5 125" stroke="black" stroke-width="15" stroke-linejoin="round"/>
<mask id="path-2-outside-1_51_78" maskUnits="userSpaceOnUse" x="219" y="48" width="654" height="203" fill="black">
<rect fill="white" x="219" y="48" width="654" height="203"/>
<path d="M267.75 202.52C258.65 202.52 250.6 200.35 243.6 196.01C236.6 191.53 231.14 185.23 227.22 177.11C223.3 168.85 221.34 158.98 221.34 147.5C221.34 135.6 223.37 125.59 227.43 117.47C231.49 109.35 237.09 103.19 244.23 98.99C251.51 94.65 259.7 92.48 268.8 92.48C274.96 92.48 280.28 93.6 284.76 95.84C289.24 98.08 292.95 100.95 295.89 104.45C298.97 107.95 301.21 111.66 302.61 115.58V95H319.41V200H301.98V179.84C300.58 184.6 298.06 188.73 294.42 192.23C290.92 195.59 286.79 198.18 282.03 200C277.41 201.68 272.65 202.52 267.75 202.52ZM270.27 186.56C276.99 186.56 282.66 184.81 287.28 181.31C292.04 177.67 295.61 172.91 297.99 167.03C300.51 161.15 301.77 154.64 301.77 147.5C301.77 135.88 298.97 126.43 293.37 119.15C287.91 111.87 280 108.23 269.64 108.23C262.78 108.23 257.04 109.98 252.42 113.48C247.94 116.84 244.58 121.46 242.34 127.34C240.1 133.22 238.98 139.8 238.98 147.08C238.98 154.36 240.1 161.01 242.34 167.03C244.58 172.91 248.01 177.67 252.63 181.31C257.39 184.81 263.27 186.56 270.27 186.56ZM392.843 200L363.653 95.21H382.763L403.553 182.57L427.493 95.21H446.813L470.543 182.78L491.543 95.21H510.653L481.463 200H457.733L437.153 122.93L415.733 200H392.843ZM566.414 75.05C563.054 75.05 560.114 73.86 557.594 71.48C555.214 68.96 554.024 66.09 554.024 62.87C554.024 59.51 555.214 56.64 557.594 54.26C560.114 51.74 563.054 50.48 566.414 50.48C569.634 50.48 572.434 51.74 574.814 54.26C577.194 56.64 578.384 59.51 578.384 62.87C578.384 66.09 577.194 68.96 574.814 71.48C572.434 73.86 569.634 75.05 566.414 75.05ZM557.384 200V95H575.024V200H557.384ZM673.255 248.3C664.155 248.16 655.615 246.13 647.635 242.21C639.655 238.29 633.635 231.71 629.575 222.47L643.435 213.86C646.095 220.02 650.015 224.71 655.195 227.93C660.375 231.15 666.465 232.76 673.465 232.76C685.085 232.76 693.485 229.68 698.665 223.52C703.845 217.36 706.435 208.33 706.435 196.43V179.84C705.035 184.6 702.515 188.73 698.875 192.23C695.375 195.59 691.245 198.18 686.485 200C681.865 201.68 677.105 202.52 672.205 202.52C663.105 202.52 655.055 200.35 648.055 196.01C641.055 191.53 635.595 185.23 631.675 177.11C627.755 168.85 625.795 158.98 625.795 147.5C625.795 135.6 627.825 125.59 631.885 117.47C635.945 109.35 641.545 103.19 648.685 98.99C655.965 94.65 664.155 92.48 673.255 92.48C679.415 92.48 684.735 93.6 689.215 95.84C693.695 98.08 697.405 100.95 700.345 104.45C703.425 107.95 705.665 111.66 707.065 115.58V95H723.865V196.43C723.865 209.59 721.555 219.95 716.935 227.51C712.455 235.21 706.365 240.6 698.665 243.68C690.965 246.9 682.495 248.44 673.255 248.3ZM674.725 186.56C681.445 186.56 687.115 184.81 691.735 181.31C696.495 177.67 700.065 172.91 702.445 167.03C704.965 161.15 706.225 154.64 706.225 147.5C706.225 135.88 703.425 126.43 697.825 119.15C692.365 111.87 684.455 108.23 674.095 108.23C667.235 108.23 661.495 109.98 656.875 113.48C652.395 116.84 649.035 121.46 646.795 127.34C644.555 133.22 643.435 139.8 643.435 147.08C643.435 154.36 644.555 161.01 646.795 167.03C649.035 172.91 652.465 177.67 657.085 181.31C661.845 184.81 667.725 186.56 674.725 186.56ZM782.334 200V95H799.974V114.74C800.674 112.22 802.284 109.21 804.804 105.71C807.324 102.21 811.034 99.13 815.934 96.47C820.834 93.81 827.204 92.48 835.044 92.48C845.264 92.48 853.664 95.77 860.244 102.35C866.964 108.93 870.324 118.52 870.324 131.12V200H852.684V133.64C852.684 124.54 850.514 118.1 846.174 114.32C841.834 110.4 836.164 108.44 829.164 108.44C819.504 108.44 812.224 111.73 807.324 118.31C802.424 124.89 799.974 133.22 799.974 143.3V200H782.334Z"/>
</mask>
<path d="M267.75 202.52C258.65 202.52 250.6 200.35 243.6 196.01C236.6 191.53 231.14 185.23 227.22 177.11C223.3 168.85 221.34 158.98 221.34 147.5C221.34 135.6 223.37 125.59 227.43 117.47C231.49 109.35 237.09 103.19 244.23 98.99C251.51 94.65 259.7 92.48 268.8 92.48C274.96 92.48 280.28 93.6 284.76 95.84C289.24 98.08 292.95 100.95 295.89 104.45C298.97 107.95 301.21 111.66 302.61 115.58V95H319.41V200H301.98V179.84C300.58 184.6 298.06 188.73 294.42 192.23C290.92 195.59 286.79 198.18 282.03 200C277.41 201.68 272.65 202.52 267.75 202.52ZM270.27 186.56C276.99 186.56 282.66 184.81 287.28 181.31C292.04 177.67 295.61 172.91 297.99 167.03C300.51 161.15 301.77 154.64 301.77 147.5C301.77 135.88 298.97 126.43 293.37 119.15C287.91 111.87 280 108.23 269.64 108.23C262.78 108.23 257.04 109.98 252.42 113.48C247.94 116.84 244.58 121.46 242.34 127.34C240.1 133.22 238.98 139.8 238.98 147.08C238.98 154.36 240.1 161.01 242.34 167.03C244.58 172.91 248.01 177.67 252.63 181.31C257.39 184.81 263.27 186.56 270.27 186.56ZM392.843 200L363.653 95.21H382.763L403.553 182.57L427.493 95.21H446.813L470.543 182.78L491.543 95.21H510.653L481.463 200H457.733L437.153 122.93L415.733 200H392.843ZM566.414 75.05C563.054 75.05 560.114 73.86 557.594 71.48C555.214 68.96 554.024 66.09 554.024 62.87C554.024 59.51 555.214 56.64 557.594 54.26C560.114 51.74 563.054 50.48 566.414 50.48C569.634 50.48 572.434 51.74 574.814 54.26C577.194 56.64 578.384 59.51 578.384 62.87C578.384 66.09 577.194 68.96 574.814 71.48C572.434 73.86 569.634 75.05 566.414 75.05ZM557.384 200V95H575.024V200H557.384ZM673.255 248.3C664.155 248.16 655.615 246.13 647.635 242.21C639.655 238.29 633.635 231.71 629.575 222.47L643.435 213.86C646.095 220.02 650.015 224.71 655.195 227.93C660.375 231.15 666.465 232.76 673.465 232.76C685.085 232.76 693.485 229.68 698.665 223.52C703.845 217.36 706.435 208.33 706.435 196.43V179.84C705.035 184.6 702.515 188.73 698.875 192.23C695.375 195.59 691.245 198.18 686.485 200C681.865 201.68 677.105 202.52 672.205 202.52C663.105 202.52 655.055 200.35 648.055 196.01C641.055 191.53 635.595 185.23 631.675 177.11C627.755 168.85 625.795 158.98 625.795 147.5C625.795 135.6 627.825 125.59 631.885 117.47C635.945 109.35 641.545 103.19 648.685 98.99C655.965 94.65 664.155 92.48 673.255 92.48C679.415 92.48 684.735 93.6 689.215 95.84C693.695 98.08 697.405 100.95 700.345 104.45C703.425 107.95 705.665 111.66 707.065 115.58V95H723.865V196.43C723.865 209.59 721.555 219.95 716.935 227.51C712.455 235.21 706.365 240.6 698.665 243.68C690.965 246.9 682.495 248.44 673.255 248.3ZM674.725 186.56C681.445 186.56 687.115 184.81 691.735 181.31C696.495 177.67 700.065 172.91 702.445 167.03C704.965 161.15 706.225 154.64 706.225 147.5C706.225 135.88 703.425 126.43 697.825 119.15C692.365 111.87 684.455 108.23 674.095 108.23C667.235 108.23 661.495 109.98 656.875 113.48C652.395 116.84 649.035 121.46 646.795 127.34C644.555 133.22 643.435 139.8 643.435 147.08C643.435 154.36 644.555 161.01 646.795 167.03C649.035 172.91 652.465 177.67 657.085 181.31C661.845 184.81 667.725 186.56 674.725 186.56ZM782.334 200V95H799.974V114.74C800.674 112.22 802.284 109.21 804.804 105.71C807.324 102.21 811.034 99.13 815.934 96.47C820.834 93.81 827.204 92.48 835.044 92.48C845.264 92.48 853.664 95.77 860.244 102.35C866.964 108.93 870.324 118.52 870.324 131.12V200H852.684V133.64C852.684 124.54 850.514 118.1 846.174 114.32C841.834 110.4 836.164 108.44 829.164 108.44C819.504 108.44 812.224 111.73 807.324 118.31C802.424 124.89 799.974 133.22 799.974 143.3V200H782.334Z" fill="black"/>
<path d="M243.6 196.01L242.522 197.695L242.534 197.702L242.546 197.71L243.6 196.01ZM227.22 177.11L225.413 177.967L225.419 177.979L227.22 177.11ZM227.43 117.47L229.219 118.364V118.364L227.43 117.47ZM244.23 98.99L245.244 100.714L245.254 100.708L244.23 98.99ZM295.89 104.45L294.359 105.736L294.373 105.754L294.389 105.771L295.89 104.45ZM302.61 115.58L300.727 116.253L304.61 115.58H302.61ZM302.61 95V93H300.61V95H302.61ZM319.41 95H321.41V93H319.41V95ZM319.41 200V202H321.41V200H319.41ZM301.98 200H299.98V202H301.98V200ZM301.98 179.84H303.98L300.061 179.276L301.98 179.84ZM294.42 192.23L295.805 193.673L295.806 193.672L294.42 192.23ZM282.03 200L282.713 201.88L282.729 201.874L282.744 201.868L282.03 200ZM287.28 181.31L288.488 182.904L288.495 182.899L287.28 181.31ZM297.99 167.03L296.152 166.242L296.144 166.261L296.136 166.28L297.99 167.03ZM293.37 119.15L291.77 120.35L291.777 120.36L291.785 120.369L293.37 119.15ZM252.42 113.48L253.62 115.08L253.628 115.074L252.42 113.48ZM242.34 127.34L244.209 128.052V128.052L242.34 127.34ZM242.34 167.03L240.466 167.727L240.468 167.735L240.471 167.742L242.34 167.03ZM252.63 181.31L251.392 182.881L251.418 182.902L251.445 182.921L252.63 181.31ZM267.75 202.52V200.52C258.982 200.52 251.305 198.434 244.654 194.31L243.6 196.01L242.546 197.71C249.895 202.266 258.318 204.52 267.75 204.52V202.52ZM243.6 196.01L244.678 194.325C238.016 190.062 232.794 184.057 229.021 176.241L227.22 177.11L225.419 177.979C229.486 186.403 235.184 192.998 242.522 197.695L243.6 196.01ZM227.22 177.11L229.027 176.253C225.262 168.32 223.34 158.757 223.34 147.5H221.34H219.34C219.34 159.203 221.338 169.38 225.413 177.967L227.22 177.11ZM221.34 147.5H223.34C223.34 135.818 225.334 126.134 229.219 118.364L227.43 117.47L225.641 116.576C221.406 125.046 219.34 135.382 219.34 147.5H221.34ZM227.43 117.47L229.219 118.364C233.123 110.555 238.469 104.699 245.244 100.714L244.23 98.99L243.216 97.2661C235.711 101.681 229.857 108.145 225.641 116.576L227.43 117.47ZM244.23 98.99L245.254 100.708C252.202 96.5661 260.033 94.48 268.8 94.48V92.48V90.48C259.367 90.48 250.818 92.7338 243.206 97.2721L244.23 98.99ZM268.8 92.48V94.48C274.72 94.48 279.72 95.556 283.866 97.6289L284.76 95.84L285.654 94.0511C280.84 91.644 275.2 90.48 268.8 90.48V92.48ZM284.76 95.84L283.866 97.6289C288.125 99.7584 291.611 102.465 294.359 105.736L295.89 104.45L297.421 103.164C294.289 99.4351 290.355 96.4016 285.654 94.0511L284.76 95.84ZM295.89 104.45L294.389 105.771C297.321 109.104 299.421 112.598 300.727 116.253L302.61 115.58L304.493 114.907C302.999 110.722 300.619 106.796 297.391 103.129L295.89 104.45ZM302.61 115.58H304.61V95H302.61H300.61V115.58H302.61ZM302.61 95V97H319.41V95V93H302.61V95ZM319.41 95H317.41V200H319.41H321.41V95H319.41ZM319.41 200V198H301.98V200V202H319.41V200ZM301.98 200H303.98V179.84H301.98H299.98V200H301.98ZM301.98 179.84L300.061 179.276C298.761 183.696 296.428 187.525 293.034 190.788L294.42 192.23L295.806 193.672C299.692 189.935 302.399 185.504 303.899 180.404L301.98 179.84ZM294.42 192.23L293.035 190.787C289.737 193.953 285.839 196.403 281.316 198.132L282.03 200L282.744 201.868C287.741 199.957 292.103 197.227 295.805 193.673L294.42 192.23ZM282.03 200L281.347 198.12C276.945 199.721 272.416 200.52 267.75 200.52V202.52V204.52C272.884 204.52 277.875 203.639 282.713 201.88L282.03 200ZM270.27 186.56V188.56C277.354 188.56 283.467 186.708 288.488 182.904L287.28 181.31L286.072 179.716C281.853 182.912 276.626 184.56 270.27 184.56V186.56ZM287.28 181.31L288.495 182.899C293.556 179.029 297.338 173.972 299.844 167.78L297.99 167.03L296.136 166.28C293.882 171.848 290.524 176.311 286.065 179.721L287.28 181.31ZM297.99 167.03L299.828 167.818C302.467 161.661 303.77 154.879 303.77 147.5H301.77H299.77C299.77 154.401 298.553 160.639 296.152 166.242L297.99 167.03ZM301.77 147.5H303.77C303.77 135.558 300.889 125.644 294.955 117.931L293.37 119.15L291.785 120.369C297.051 127.216 299.77 136.202 299.77 147.5H301.77ZM293.37 119.15L294.97 117.95C289.076 110.092 280.53 106.23 269.64 106.23V108.23V110.23C279.47 110.23 286.744 113.648 291.77 120.35L293.37 119.15ZM269.64 108.23V106.23C262.427 106.23 256.241 108.077 251.212 111.886L252.42 113.48L253.628 115.074C257.839 111.883 263.133 110.23 269.64 110.23V108.23ZM252.42 113.48L251.22 111.88C246.401 115.494 242.828 120.44 240.471 126.628L242.34 127.34L244.209 128.052C246.332 122.48 249.479 118.186 253.62 115.08L252.42 113.48ZM242.34 127.34L240.471 126.628C238.132 132.768 236.98 139.594 236.98 147.08H238.98H240.98C240.98 140.006 242.068 133.672 244.209 128.052L242.34 127.34ZM238.98 147.08H236.98C236.98 154.567 238.132 161.457 240.466 167.727L242.34 167.03L244.214 166.333C242.068 160.563 240.98 154.153 240.98 147.08H238.98ZM242.34 167.03L240.471 167.742C242.831 173.936 246.468 179.001 251.392 182.881L252.63 181.31L253.868 179.739C249.552 176.339 246.329 171.884 244.209 166.318L242.34 167.03ZM252.63 181.31L251.445 182.921C256.609 186.718 262.925 188.56 270.27 188.56V186.56V184.56C263.615 184.56 258.171 182.902 253.815 179.699L252.63 181.31ZM392.843 200L390.916 200.537L391.324 202H392.843V200ZM363.653 95.21V93.21H361.019L361.726 95.7467L363.653 95.21ZM382.763 95.21L384.708 94.747L384.343 93.21H382.763V95.21ZM403.553 182.57L401.607 183.033L405.482 183.099L403.553 182.57ZM427.493 95.21V93.21H425.967L425.564 94.6814L427.493 95.21ZM446.813 95.21L448.743 94.6869L448.343 93.21H446.813V95.21ZM470.543 182.78L468.612 183.303L472.488 183.246L470.543 182.78ZM491.543 95.21V93.21H489.966L489.598 94.7436L491.543 95.21ZM510.653 95.21L512.579 95.7467L513.286 93.21H510.653V95.21ZM481.463 200V202H482.982L483.389 200.537L481.463 200ZM457.733 200L455.8 200.516L456.197 202H457.733V200ZM437.153 122.93L439.085 122.414L437.191 115.322L435.226 122.394L437.153 122.93ZM415.733 200V202H417.253L417.66 200.536L415.733 200ZM392.843 200L394.769 199.463L365.579 94.6733L363.653 95.21L361.726 95.7467L390.916 200.537L392.843 200ZM363.653 95.21V97.21H382.763V95.21V93.21H363.653V95.21ZM382.763 95.21L380.817 95.673L401.607 183.033L403.553 182.57L405.498 182.107L384.708 94.747L382.763 95.21ZM403.553 182.57L405.482 183.099L429.422 95.7386L427.493 95.21L425.564 94.6814L401.624 182.041L403.553 182.57ZM427.493 95.21V97.21H446.813V95.21V93.21H427.493V95.21ZM446.813 95.21L444.882 95.7331L468.612 183.303L470.543 182.78L472.473 182.257L448.743 94.6869L446.813 95.21ZM470.543 182.78L472.488 183.246L493.488 95.6764L491.543 95.21L489.598 94.7436L468.598 182.314L470.543 182.78ZM491.543 95.21V97.21H510.653V95.21V93.21H491.543V95.21ZM510.653 95.21L508.726 94.6733L479.536 199.463L481.463 200L483.389 200.537L512.579 95.7467L510.653 95.21ZM481.463 200V198H457.733V200V202H481.463V200ZM457.733 200L459.665 199.484L439.085 122.414L437.153 122.93L435.22 123.446L455.8 200.516L457.733 200ZM437.153 122.93L435.226 122.394L413.806 199.464L415.733 200L417.66 200.536L439.08 123.466L437.153 122.93ZM415.733 200V198H392.843V200V202H415.733V200ZM557.594 71.48L556.14 72.8532L556.18 72.8948L556.221 72.934L557.594 71.48ZM557.594 54.26L559.009 55.6742V55.6742L557.594 54.26ZM574.814 54.26L573.36 55.6332L573.38 55.654L573.4 55.6742L574.814 54.26ZM574.814 71.48L576.229 72.8942L576.249 72.874L576.268 72.8532L574.814 71.48ZM557.384 200H555.384V202H557.384V200ZM557.384 95V93H555.384V95H557.384ZM575.024 95H577.024V93H575.024V95ZM575.024 200V202H577.024V200H575.024ZM566.414 75.05V73.05C563.583 73.05 561.129 72.0676 558.968 70.026L557.594 71.48L556.221 72.934C559.099 75.6524 562.526 77.05 566.414 77.05V75.05ZM557.594 71.48L559.048 70.1068C556.99 67.9269 556.024 65.5381 556.024 62.87H554.024H552.024C552.024 66.6419 553.439 69.9931 556.14 72.8532L557.594 71.48ZM554.024 62.87H556.024C556.024 60.0415 557.003 57.6799 559.009 55.6742L557.594 54.26L556.18 52.8458C553.426 55.6001 552.024 58.9785 552.024 62.87H554.024ZM557.594 54.26L559.009 55.6742C561.179 53.504 563.619 52.48 566.414 52.48V50.48V48.48C562.489 48.48 559.05 49.976 556.18 52.8458L557.594 54.26ZM566.414 50.48V52.48C569.039 52.48 571.326 53.4792 573.36 55.6332L574.814 54.26L576.268 52.8867C573.543 50.0008 570.23 48.48 566.414 48.48V50.48ZM574.814 54.26L573.4 55.6742C575.406 57.6799 576.384 60.0415 576.384 62.87H578.384H580.384C580.384 58.9785 578.983 55.6001 576.229 52.8458L574.814 54.26ZM578.384 62.87H576.384C576.384 65.5381 575.419 67.9269 573.36 70.1068L574.814 71.48L576.268 72.8532C578.97 69.9931 580.384 66.6419 580.384 62.87H578.384ZM574.814 71.48L573.4 70.0658C571.376 72.0896 569.078 73.05 566.414 73.05V75.05V77.05C570.191 77.05 573.492 75.6304 576.229 72.8942L574.814 71.48ZM557.384 200H559.384V95H557.384H555.384V200H557.384ZM557.384 95V97H575.024V95V93H557.384V95ZM575.024 95H573.024V200H575.024H577.024V95H575.024ZM575.024 200V198H557.384V200V202H575.024V200ZM673.255 248.3L673.224 250.3L673.225 250.3L673.255 248.3ZM647.635 242.21L648.517 240.415V240.415L647.635 242.21ZM629.575 222.47L628.52 220.771L627.046 221.686L627.744 223.275L629.575 222.47ZM643.435 213.86L645.271 213.067L644.351 210.936L642.38 212.161L643.435 213.86ZM655.195 227.93L656.251 226.231V226.231L655.195 227.93ZM706.435 179.84H708.435L704.516 179.276L706.435 179.84ZM698.875 192.23L700.26 193.673L700.261 193.672L698.875 192.23ZM686.485 200L687.169 201.88L687.184 201.874L687.199 201.868L686.485 200ZM648.055 196.01L646.977 197.695L646.989 197.702L647.001 197.71L648.055 196.01ZM631.675 177.11L629.868 177.967L629.874 177.979L631.675 177.11ZM631.885 117.47L633.674 118.364V118.364L631.885 117.47ZM648.685 98.99L649.699 100.714L649.709 100.708L648.685 98.99ZM700.345 104.45L698.814 105.736L698.828 105.754L698.844 105.771L700.345 104.45ZM707.065 115.58L705.182 116.253L709.065 115.58H707.065ZM707.065 95V93H705.065V95H707.065ZM723.865 95H725.865V93H723.865V95ZM716.935 227.51L715.229 226.467L715.217 226.486L715.206 226.504L716.935 227.51ZM698.665 243.68L697.922 241.823L697.908 241.829L697.893 241.835L698.665 243.68ZM691.735 181.31L692.943 182.904L692.95 182.899L691.735 181.31ZM702.445 167.03L700.607 166.242L700.599 166.261L700.591 166.28L702.445 167.03ZM697.825 119.15L696.225 120.35L696.232 120.36L696.24 120.369L697.825 119.15ZM656.875 113.48L658.075 115.08L658.083 115.074L656.875 113.48ZM646.795 127.34L648.664 128.052V128.052L646.795 127.34ZM646.795 167.03L644.921 167.727L644.923 167.735L644.926 167.742L646.795 167.03ZM657.085 181.31L655.847 182.881L655.873 182.902L655.9 182.921L657.085 181.31ZM673.255 248.3L673.286 246.3C664.474 246.165 656.225 244.202 648.517 240.415L647.635 242.21L646.753 244.005C655.005 248.058 663.836 250.155 673.224 250.3L673.255 248.3ZM647.635 242.21L648.517 240.415C641.017 236.731 635.304 230.536 631.406 221.665L629.575 222.47L627.744 223.275C631.967 232.884 638.293 239.849 646.753 244.005L647.635 242.21ZM629.575 222.47L630.63 224.169L644.49 215.559L643.435 213.86L642.38 212.161L628.52 220.771L629.575 222.47ZM643.435 213.86L641.599 214.653C644.404 221.148 648.578 226.172 654.139 229.629L655.195 227.93L656.251 226.231C651.452 223.248 647.786 218.892 645.271 213.067L643.435 213.86ZM655.195 227.93L654.139 229.629C659.681 233.073 666.148 234.76 673.465 234.76V232.76V230.76C666.782 230.76 661.069 229.227 656.251 226.231L655.195 227.93ZM673.465 232.76V234.76C685.405 234.76 694.491 231.592 700.196 224.807L698.665 223.52L697.134 222.233C692.479 227.768 684.765 230.76 673.465 230.76V232.76ZM698.665 223.52L700.196 224.807C705.795 218.149 708.435 208.582 708.435 196.43H706.435H704.435C704.435 208.078 701.895 216.571 697.134 222.233L698.665 223.52ZM706.435 196.43H708.435V179.84H706.435H704.435V196.43H706.435ZM706.435 179.84L704.516 179.276C703.216 183.696 700.883 187.525 697.489 190.788L698.875 192.23L700.261 193.672C704.147 189.935 706.854 185.504 708.354 180.404L706.435 179.84ZM698.875 192.23L697.49 190.787C694.193 193.953 690.294 196.403 685.771 198.132L686.485 200L687.199 201.868C692.196 199.957 696.558 197.227 700.26 193.673L698.875 192.23ZM686.485 200L685.802 198.12C681.4 199.721 676.871 200.52 672.205 200.52V202.52V204.52C677.339 204.52 682.33 203.639 687.169 201.88L686.485 200ZM672.205 202.52V200.52C663.437 200.52 655.76 198.434 649.109 194.31L648.055 196.01L647.001 197.71C654.35 202.266 662.773 204.52 672.205 204.52V202.52ZM648.055 196.01L649.133 194.325C642.471 190.062 637.249 184.057 633.476 176.241L631.675 177.11L629.874 177.979C633.941 186.403 639.639 192.998 646.977 197.695L648.055 196.01ZM631.675 177.11L633.482 176.253C629.717 168.32 627.795 158.757 627.795 147.5H625.795H623.795C623.795 159.203 625.793 169.38 629.868 177.967L631.675 177.11ZM625.795 147.5H627.795C627.795 135.818 629.789 126.134 633.674 118.364L631.885 117.47L630.096 116.576C625.861 125.046 623.795 135.382 623.795 147.5H625.795ZM631.885 117.47L633.674 118.364C637.578 110.555 642.924 104.699 649.699 100.714L648.685 98.99L647.671 97.2661C640.166 101.681 634.312 108.145 630.096 116.576L631.885 117.47ZM648.685 98.99L649.709 100.708C656.657 96.5661 664.488 94.48 673.255 94.48V92.48V90.48C663.822 90.48 655.273 92.7338 647.661 97.2721L648.685 98.99ZM673.255 92.48V94.48C679.175 94.48 684.175 95.556 688.321 97.6289L689.215 95.84L690.109 94.0511C685.295 91.644 679.655 90.48 673.255 90.48V92.48ZM689.215 95.84L688.321 97.6289C692.58 99.7584 696.066 102.465 698.814 105.736L700.345 104.45L701.876 103.164C698.745 99.4351 694.81 96.4016 690.109 94.0511L689.215 95.84ZM700.345 104.45L698.844 105.771C701.776 109.104 703.876 112.598 705.182 116.253L707.065 115.58L708.949 114.907C707.454 110.722 705.074 106.796 701.846 103.129L700.345 104.45ZM707.065 115.58H709.065V95H707.065H705.065V115.58H707.065ZM707.065 95V97H723.865V95V93H707.065V95ZM723.865 95H721.865V196.43H723.865H725.865V95H723.865ZM723.865 196.43H721.865C721.865 209.389 719.585 219.338 715.229 226.467L716.935 227.51L718.642 228.553C723.525 220.562 725.865 209.791 725.865 196.43H723.865ZM716.935 227.51L715.206 226.504C710.933 233.849 705.176 238.921 697.922 241.823L698.665 243.68L699.408 245.537C707.554 242.279 713.977 236.571 718.664 228.516L716.935 227.51ZM698.665 243.68L697.893 241.835C690.473 244.938 682.28 246.437 673.285 246.3L673.255 248.3L673.225 250.3C682.71 250.443 691.457 248.862 699.437 245.525L698.665 243.68ZM674.725 186.56V188.56C681.809 188.56 687.922 186.708 692.943 182.904L691.735 181.31L690.527 179.716C686.308 182.912 681.081 184.56 674.725 184.56V186.56ZM691.735 181.31L692.95 182.899C698.011 179.029 701.793 173.972 704.299 167.78L702.445 167.03L700.591 166.28C698.337 171.848 694.979 176.311 690.52 179.721L691.735 181.31ZM702.445 167.03L704.283 167.818C706.922 161.661 708.225 154.879 708.225 147.5H706.225H704.225C704.225 154.401 703.008 160.639 700.607 166.242L702.445 167.03ZM706.225 147.5H708.225C708.225 135.558 705.344 125.644 699.41 117.931L697.825 119.15L696.24 120.369C701.507 127.216 704.225 136.202 704.225 147.5H706.225ZM697.825 119.15L699.425 117.95C693.531 110.092 684.985 106.23 674.095 106.23V108.23V110.23C683.925 110.23 691.199 113.648 696.225 120.35L697.825 119.15ZM674.095 108.23V106.23C666.882 106.23 660.696 108.077 655.667 111.886L656.875 113.48L658.083 115.074C662.295 111.883 667.588 110.23 674.095 110.23V108.23ZM656.875 113.48L655.675 111.88C650.856 115.494 647.284 120.44 644.926 126.628L646.795 127.34L648.664 128.052C650.787 122.48 653.934 118.186 658.075 115.08L656.875 113.48ZM646.795 127.34L644.926 126.628C642.587 132.768 641.435 139.594 641.435 147.08H643.435H645.435C645.435 140.006 646.523 133.672 648.664 128.052L646.795 127.34ZM643.435 147.08H641.435C641.435 154.567 642.587 161.457 644.921 167.727L646.795 167.03L648.67 166.333C646.523 160.563 645.435 154.153 645.435 147.08H643.435ZM646.795 167.03L644.926 167.742C647.286 173.936 650.923 179.001 655.847 182.881L657.085 181.31L658.323 179.739C654.007 176.339 650.785 171.884 648.664 166.318L646.795 167.03ZM657.085 181.31L655.9 182.921C661.064 186.718 667.38 188.56 674.725 188.56V186.56V184.56C668.07 184.56 662.626 182.902 658.27 179.699L657.085 181.31ZM782.334 200H780.334V202H782.334V200ZM782.334 95V93H780.334V95H782.334ZM799.974 95H801.974V93H799.974V95ZM799.974 114.74H797.974L801.901 115.275L799.974 114.74ZM804.804 105.71L806.427 106.879V106.879L804.804 105.71ZM815.934 96.47L816.888 98.2277L815.934 96.47ZM860.244 102.35L858.829 103.764L858.837 103.772L858.844 103.779L860.244 102.35ZM870.324 200V202H872.324V200H870.324ZM852.684 200H850.684V202H852.684V200ZM846.174 114.32L844.833 115.804L844.846 115.816L844.86 115.828L846.174 114.32ZM807.324 118.31L805.72 117.115V117.115L807.324 118.31ZM799.974 200V202H801.974V200H799.974ZM782.334 200H784.334V95H782.334H780.334V200H782.334ZM782.334 95V97H799.974V95V93H782.334V95ZM799.974 95H797.974V114.74H799.974H801.974V95H799.974ZM799.974 114.74L801.901 115.275C802.51 113.083 803.967 110.295 806.427 106.879L804.804 105.71L803.181 104.541C800.6 108.125 798.838 111.357 798.047 114.205L799.974 114.74ZM804.804 105.71L806.427 106.879C808.727 103.683 812.178 100.785 816.888 98.2277L815.934 96.47L814.979 94.7123C809.89 97.4753 805.92 100.737 803.181 104.541L804.804 105.71ZM815.934 96.47L816.888 98.2277C821.4 95.7782 827.409 94.48 835.044 94.48V92.48V90.48C826.998 90.48 820.267 91.8418 814.979 94.7123L815.934 96.47ZM835.044 92.48V94.48C844.791 94.48 852.663 97.5979 858.829 103.764L860.244 102.35L861.658 100.936C854.664 93.942 845.737 90.48 835.044 90.48V92.48ZM860.244 102.35L858.844 103.779C865.063 109.868 868.324 118.869 868.324 131.12H870.324H872.324C872.324 118.171 868.864 107.992 861.643 100.921L860.244 102.35ZM870.324 131.12H868.324V200H870.324H872.324V131.12H870.324ZM870.324 200V198H852.684V200V202H870.324V200ZM852.684 200H854.684V133.64H852.684H850.684V200H852.684ZM852.684 133.64H854.684C854.684 124.294 852.463 117.146 847.487 112.812L846.174 114.32L844.86 115.828C848.564 119.054 850.684 124.786 850.684 133.64H852.684ZM846.174 114.32L847.514 112.836C842.737 108.521 836.556 106.44 829.164 106.44V108.44V110.44C835.771 110.44 840.93 112.279 844.833 115.804L846.174 114.32ZM829.164 108.44V106.44C818.999 106.44 811.067 109.935 805.72 117.115L807.324 118.31L808.928 119.505C813.38 113.525 820.009 110.44 829.164 110.44V108.44ZM807.324 118.31L805.72 117.115C800.508 124.113 797.974 132.89 797.974 143.3H799.974H801.974C801.974 133.55 804.339 125.667 808.928 119.505L807.324 118.31ZM799.974 143.3H797.974V200H799.974H801.974V143.3H799.974ZM799.974 200V198H782.334V200V202H799.974V200Z" fill="black" mask="url(#path-2-outside-1_51_78)"/>
</svg>
