<svg width="249" height="75" viewBox="0 0 249 75" fill="none" xmlns="http://www.w3.org/2000/svg">
<path d="M92.2894 11.8242C92.9682 11.8242 93.5325 12.3985 93.5325 13.0724V36.7885C93.5325 37.47 92.9605 38.0367 92.2894 38.0367H89.6201C88.9413 38.0367 88.377 37.4624 88.377 36.7885V13.0724C88.377 12.3909 88.949 11.8242 89.6201 11.8242H92.2894ZM120.92 11.8242C121.598 11.8242 122.163 12.3985 122.163 13.0724V36.7885C122.163 37.47 121.591 38.0367 120.92 38.0367H117.793C117.404 38.0367 117.045 37.8606 116.794 37.5389L104.454 20.577V36.7885C104.454 37.47 103.882 38.0367 103.211 38.0367H100.541C99.8626 38.0367 99.2982 37.4624 99.2982 36.7885V13.0724C99.2982 12.3909 99.8702 11.8242 100.541 11.8242H103.638C104.027 11.8242 104.423 12.0003 104.629 12.322L117.007 29.215V13.0724C117.007 12.3909 117.541 11.8242 118.22 11.8242H120.92ZM136.02 17.4527C135.113 17.8356 134.312 18.3946 133.686 19.1297C132.359 20.6 131.734 22.5221 131.734 24.9343C131.734 27.3465 132.359 29.2686 133.686 30.7771C135.044 32.3164 136.996 33.0515 139.681 33.0515C141.107 33.0515 142.297 32.6992 143.342 32.0024C144.425 31.2672 145.187 30.356 145.714 29.1384C145.889 28.6866 146.339 28.4032 146.827 28.4032H149.58C149.962 28.4032 150.351 28.5794 150.556 28.8933C150.801 29.2456 150.869 29.6285 150.732 30.0114C149.862 32.4619 148.436 34.3839 146.484 35.7853C144.394 37.2939 141.923 38.0597 139.101 38.0597C135.372 38.0597 132.306 36.7655 129.972 34.1772C127.814 31.7267 126.701 28.6177 126.701 24.9419C126.701 21.2662 127.814 18.1572 129.972 15.7067C132.306 13.1184 135.372 11.8242 139.101 11.8242C141.923 11.8242 144.394 12.5977 146.484 14.0986C148.436 15.4999 149.862 17.4527 150.732 19.8725C150.869 20.2554 150.801 20.6766 150.556 20.9905C150.351 21.3045 149.962 21.4806 149.58 21.4806H146.827C146.339 21.4806 145.889 21.1973 145.714 20.7455C145.195 19.5203 144.425 18.609 143.342 17.8815C142.297 17.1846 141.115 16.8324 139.681 16.8324C138.186 16.8324 136.966 17.0468 136.02 17.4603M171.819 27.9361L177.12 36.1146C177.372 36.5051 177.371 37.0106 177.158 37.4011C176.944 37.7916 176.517 38.0444 176.09 38.0444H172.887C172.46 38.0444 172.071 37.8299 171.857 37.47L166.519 28.9316H160.219V36.7885C160.219 37.47 159.647 38.0367 158.976 38.0367H156.307C155.628 38.0367 155.064 37.4624 155.064 36.7885V13.0724C155.064 12.3909 155.636 11.8242 156.307 11.8242H167.617C170.317 11.8242 172.559 12.613 174.229 14.1445C175.938 15.7144 176.792 17.8202 176.792 20.5004C176.792 23.9311 175.259 26.4275 172.384 27.6834C172.208 27.7906 171.995 27.8595 171.812 27.9361M160.219 16.863V23.9005H167.152C169.219 23.9005 170.569 23.3262 171.316 22.1469C171.53 21.7563 171.674 21.182 171.674 20.5004C171.674 19.3212 171.316 18.5018 170.569 17.8585C169.753 17.177 168.685 16.8554 167.297 16.8554H160.219V16.863ZM200.236 32.8983C200.945 32.8983 201.479 33.4727 201.479 34.1848V36.7885C201.479 37.47 200.945 38.0367 200.236 38.0367H182.664C181.986 38.0367 181.421 37.4624 181.421 36.7885V34.1848C181.421 33.4727 181.993 32.8983 182.664 32.8983H200.236ZM182.664 27.6451C181.986 27.6451 181.421 27.0708 181.421 26.3969V23.7167C181.421 23.0352 181.993 22.4685 182.664 22.4685H198.634C199.344 22.4685 199.916 23.0428 199.916 23.7167V26.3969C199.916 27.0785 199.344 27.6451 198.634 27.6451H182.664ZM200.236 11.8242C200.945 11.8242 201.479 12.3985 201.479 13.0724V15.6837C201.479 16.3959 200.945 16.9702 200.236 16.9702H182.664C181.986 16.9702 181.421 16.3959 181.421 15.6837V13.0724C181.421 12.3909 181.993 11.8242 182.664 11.8242H200.236ZM222.681 22.4685C223.39 22.4685 223.962 23.0428 223.962 23.755V26.3969C223.962 27.0785 223.39 27.6451 222.681 27.6451H210.982V36.7885C210.982 37.47 210.448 38.0367 209.739 38.0367H207.039C206.36 38.0367 205.796 37.4624 205.796 36.7885V23.755C205.796 23.0428 206.368 22.4685 207.039 22.4685H222.689H222.681ZM224.283 11.8242C224.961 11.8242 225.526 12.3985 225.526 13.0724V15.6837C225.526 16.3959 224.954 16.9702 224.283 16.9702H207.031C206.352 16.9702 205.788 16.3959 205.788 15.6837V13.0724C205.788 12.3909 206.36 11.8242 207.031 11.8242H224.283ZM246.156 22.4685C246.865 22.4685 247.437 23.0428 247.437 23.755V26.3969C247.437 27.0785 246.865 27.6451 246.156 27.6451H234.456V36.7885C234.456 37.47 233.923 38.0367 233.213 38.0367H230.506C229.827 38.0367 229.263 37.4624 229.263 36.7885V23.755C229.263 23.0428 229.835 22.4685 230.506 22.4685H246.156ZM247.757 11.8242C248.436 11.8242 249 12.3985 249 13.0724V15.6837C249 16.3959 248.428 16.9702 247.757 16.9702H230.506C229.827 16.9702 229.263 16.3959 229.263 15.6837V13.0724C229.263 12.3909 229.835 11.8242 230.506 11.8242H247.757Z" fill="white"/>
<path d="M88.377 49.0713H91.8013V50.2966H90.7793V58.6129H91.8013V59.8381H88.377V58.6129H89.3913V50.2966H88.377V49.0713ZM98.3373 58.6129H99.3669V55.2512C99.3669 54.6845 99.2219 54.2633 98.9398 53.9723C98.6576 53.6813 98.2457 53.5358 97.7119 53.5358C97.4068 53.5358 97.0941 53.6124 96.7891 53.7579C96.4764 53.9034 96.1866 54.0872 95.9044 54.3016V58.6129H96.934V59.8381H93.5096V58.6129H94.524V53.7043H93.5096V52.479H95.8434V53.3444H95.8586C96.0112 53.2065 96.1789 53.0764 96.3544 52.9538C96.5298 52.8313 96.7128 52.7241 96.9111 52.6322C97.1018 52.5403 97.3077 52.4714 97.5136 52.4178C97.7271 52.3642 97.9407 52.3412 98.1771 52.3412C98.5661 52.3412 98.9245 52.3948 99.2372 52.502C99.5499 52.6092 99.8244 52.7777 100.046 52.9998C100.267 53.2218 100.435 53.5052 100.557 53.8574C100.679 54.2097 100.74 54.6156 100.74 55.0903V58.6129H101.762V59.8381H98.3373V58.6129ZM108.458 54.4394C108.259 54.0872 108.008 53.8268 107.703 53.6583C107.398 53.4899 107.047 53.4133 106.643 53.4133C106.338 53.4133 106.048 53.4746 105.781 53.6047C105.514 53.7349 105.277 53.9187 105.079 54.1484C104.881 54.3858 104.721 54.6692 104.606 55.0138C104.492 55.3507 104.431 55.7259 104.431 56.1471C104.431 56.5683 104.492 56.9282 104.606 57.2575C104.721 57.5868 104.881 57.8701 105.087 58.1075C105.293 58.3449 105.522 58.521 105.788 58.6435C106.055 58.7661 106.345 58.835 106.65 58.835C107.1 58.835 107.497 58.7278 107.832 58.5057C108.168 58.2836 108.435 57.962 108.633 57.5332L109.724 58.0692C109.579 58.3755 109.411 58.6435 109.198 58.8886C108.992 59.1336 108.755 59.3327 108.496 59.5089C108.237 59.6773 107.947 59.8075 107.634 59.9071C107.321 59.999 106.986 60.0449 106.643 60.0449C106.132 60.0449 105.666 59.953 105.232 59.7539C104.797 59.5625 104.431 59.2944 104.118 58.9498C103.806 58.6052 103.561 58.1917 103.386 57.7169C103.211 57.2422 103.127 56.7138 103.127 56.1471C103.127 55.5804 103.218 55.052 103.401 54.5773C103.584 54.1025 103.836 53.689 104.156 53.3444C104.477 52.9998 104.85 52.7318 105.277 52.5403C105.705 52.3489 106.17 52.2493 106.658 52.2493C107.123 52.2493 107.558 52.3336 107.97 52.4944C108.381 52.6552 108.748 52.9002 109.053 53.2295H109.792V54.4471H108.465L108.458 54.4394ZM116.344 54.0336H115.001V53.5818C114.849 53.5818 114.689 53.6124 114.521 53.6737C114.361 53.7349 114.208 53.8192 114.063 53.9417C113.918 54.0642 113.796 54.2174 113.69 54.4011C113.583 54.5849 113.507 54.807 113.461 55.0674V58.6206H114.704V59.8381H111.074V58.6206H112.088V53.7119H111.074V52.4867H113.415V53.5052C113.499 53.352 113.598 53.2142 113.705 53.084C113.812 52.9538 113.926 52.839 114.056 52.7394C114.185 52.6399 114.33 52.5633 114.49 52.5097C114.651 52.4561 114.818 52.4254 115.001 52.4254H115.695L116.344 52.4408V54.0412V54.0336ZM119.104 56.3232C119.104 56.53 119.12 56.7214 119.15 56.8976C119.181 57.0737 119.226 57.2345 119.28 57.3877C119.455 57.8624 119.73 58.2147 120.119 58.4597C120.5 58.6971 120.935 58.8197 121.423 58.8197C121.804 58.8197 122.178 58.7661 122.536 58.6588C122.895 58.5516 123.276 58.3832 123.673 58.1611L124.207 59.0647C123.726 59.394 123.246 59.639 122.758 59.7999C122.269 59.9607 121.766 60.0449 121.248 60.0449C120.752 60.0449 120.294 59.9607 119.875 59.7922C119.455 59.6237 119.089 59.3787 118.784 59.0571C118.479 58.7278 118.243 58.3219 118.075 57.8395C117.899 57.3494 117.816 56.7827 117.816 56.1318C117.816 55.6034 117.892 55.1133 118.037 54.6462C118.182 54.1791 118.403 53.7732 118.693 53.421C118.982 53.0764 119.341 52.8007 119.768 52.5939C120.195 52.3948 120.698 52.2876 121.263 52.2876C121.827 52.2876 122.277 52.3718 122.643 52.5403C123.017 52.7088 123.314 52.9309 123.551 53.2065C123.787 53.4822 123.963 53.7962 124.085 54.1561C124.207 54.5084 124.291 54.8759 124.336 55.2435C124.359 55.4196 124.374 55.6034 124.382 55.7872C124.382 55.971 124.39 56.1548 124.39 56.3309H119.112L119.104 56.3232ZM121.164 53.3903C120.859 53.3903 120.592 53.4363 120.363 53.5205C120.134 53.6047 119.943 53.7349 119.783 53.8957C119.623 54.0565 119.493 54.2556 119.394 54.493C119.295 54.7304 119.226 54.9984 119.181 55.2894H122.979C122.956 55.0138 122.918 54.7611 122.849 54.5313C122.78 54.3016 122.674 54.0948 122.536 53.9264C122.391 53.7579 122.216 53.6201 121.995 53.5282C121.774 53.4363 121.499 53.3827 121.171 53.3827M130.499 48.7727H132.809V58.5976H133.885V59.8228H131.498V59.2179C131.261 59.4629 130.987 59.6467 130.674 59.7845C130.361 59.9224 130.01 59.9913 129.614 59.9913C129.118 59.9913 128.661 59.9071 128.233 59.7309C127.806 59.5625 127.44 59.3021 127.12 58.9728C126.807 58.6359 126.563 58.23 126.388 57.7476C126.212 57.2651 126.121 56.7061 126.121 56.0858C126.121 55.5192 126.205 54.9984 126.373 54.5313C126.54 54.0642 126.784 53.666 127.097 53.3367C127.41 53.0074 127.783 52.7547 128.218 52.5709C128.653 52.3872 129.141 52.2953 129.683 52.2953C130.033 52.2953 130.361 52.3336 130.651 52.4101C130.941 52.4867 131.223 52.6245 131.49 52.816V49.9979H130.491V48.7804L130.499 48.7727ZM129.782 58.835C130.171 58.835 130.499 58.7737 130.765 58.6588C131.032 58.544 131.269 58.3679 131.498 58.1381V54.0183C131.261 53.8192 130.994 53.6737 130.682 53.5818C130.377 53.4899 130.064 53.4439 129.744 53.4439C129.423 53.4439 129.141 53.5052 128.866 53.62C128.592 53.7349 128.355 53.9034 128.15 54.1255C127.944 54.3475 127.783 54.6232 127.669 54.9448C127.555 55.2665 127.494 55.634 127.494 56.0552C127.494 56.507 127.547 56.9129 127.661 57.2575C127.776 57.6021 127.936 57.8931 128.134 58.1228C128.34 58.3602 128.584 58.5363 128.866 58.6512C129.149 58.7661 129.461 58.8273 129.789 58.8273M135.09 52.4561H137.477V58.5899H138.583V59.8075H135.105V58.5899H136.15V53.6813H135.09V52.4561ZM135.906 49.8524C135.906 49.7299 135.929 49.615 135.982 49.5002C136.035 49.3853 136.096 49.2934 136.18 49.2092C136.264 49.125 136.363 49.056 136.478 49.0101C136.592 48.9641 136.714 48.9335 136.836 48.9335C136.958 48.9335 137.073 48.9565 137.187 49.0101C137.294 49.056 137.393 49.125 137.477 49.2092C137.561 49.2934 137.622 49.3853 137.675 49.5002C137.729 49.615 137.751 49.7299 137.751 49.8524C137.751 49.975 137.729 50.1051 137.675 50.2124C137.622 50.3196 137.561 50.4268 137.477 50.511C137.393 50.5952 137.294 50.6642 137.187 50.7178C137.073 50.7714 136.958 50.7943 136.836 50.7943C136.714 50.7943 136.592 50.7714 136.478 50.7178C136.363 50.6642 136.264 50.6029 136.18 50.511C136.096 50.4268 136.035 50.3196 135.982 50.2124C135.936 50.0975 135.906 49.975 135.906 49.8524ZM139.49 48.765H141.862V53.0687C142.175 52.8236 142.51 52.6322 142.876 52.4944C143.243 52.3489 143.624 52.2799 144.013 52.2799C144.493 52.2799 144.936 52.3718 145.332 52.548C145.736 52.7241 146.08 52.9845 146.369 53.3061C146.659 53.6354 146.888 54.0259 147.048 54.4777C147.208 54.9372 147.292 55.4426 147.292 55.994C147.292 56.5836 147.201 57.1196 147.025 57.6021C146.842 58.0845 146.598 58.498 146.278 58.8426C145.958 59.1872 145.584 59.4553 145.142 59.639C144.699 59.8228 144.219 59.9147 143.7 59.9147C143.334 59.9147 142.999 59.8611 142.678 59.7539C142.358 59.6467 142.091 59.5089 141.862 59.3404V59.7999H140.55V49.975H139.49V48.7574V48.765ZM143.677 53.4439C143.334 53.4439 143.006 53.5128 142.686 53.6583C142.373 53.7962 142.099 53.9953 141.862 54.2327V58.1841C142.015 58.3372 142.236 58.4827 142.526 58.5976C142.815 58.7201 143.182 58.7814 143.632 58.7814C143.937 58.7814 144.226 58.7278 144.501 58.6129C144.776 58.498 145.027 58.3296 145.233 58.0998C145.447 57.8701 145.614 57.5868 145.744 57.2422C145.874 56.8976 145.935 56.507 145.935 56.0476C145.935 55.634 145.874 55.2588 145.752 54.9372C145.63 54.6156 145.47 54.3399 145.264 54.1178C145.058 53.8957 144.821 53.7273 144.547 53.6124C144.272 53.4975 143.982 53.4363 143.67 53.4363M148.589 48.7574H150.961V58.5823H152.067V59.8075H148.589V58.5823H149.649V49.975H148.589V48.7574ZM154.599 56.2926C154.599 56.4994 154.614 56.6908 154.644 56.8669C154.675 57.0431 154.721 57.2039 154.774 57.357C154.949 57.8318 155.232 58.1841 155.613 58.4291C155.994 58.6665 156.429 58.789 156.917 58.789C157.298 58.789 157.672 58.7354 158.031 58.6282C158.389 58.521 158.77 58.3525 159.167 58.1305L159.701 59.0341C159.22 59.3634 158.74 59.6084 158.252 59.7692C157.764 59.93 157.26 60.0143 156.742 60.0143C156.246 60.0143 155.788 59.93 155.369 59.7616C154.949 59.5931 154.583 59.348 154.278 59.0264C153.973 58.6971 153.737 58.2913 153.561 57.8088C153.386 57.3187 153.302 56.7521 153.302 56.1012C153.302 55.5728 153.378 55.0827 153.523 54.6156C153.668 54.1484 153.889 53.7426 154.179 53.3903C154.469 53.0457 154.827 52.77 155.254 52.5633C155.682 52.3642 156.185 52.257 156.757 52.257C157.329 52.257 157.771 52.3412 158.137 52.5097C158.511 52.6781 158.808 52.9002 159.045 53.1759C159.274 53.4516 159.457 53.7655 159.579 54.1255C159.701 54.4777 159.785 54.8453 159.83 55.2129C159.853 55.389 159.869 55.5728 159.876 55.7566C159.876 55.9403 159.884 56.1241 159.884 56.3003H154.606L154.599 56.2926ZM156.658 53.3597C156.353 53.3597 156.086 53.4056 155.857 53.4899C155.628 53.5741 155.43 53.7043 155.27 53.8651C155.11 54.0259 154.98 54.225 154.881 54.4624C154.782 54.6998 154.713 54.9678 154.667 55.2588H158.465C158.45 54.9831 158.404 54.7304 158.336 54.5007C158.267 54.271 158.16 54.0642 158.023 53.8957C157.878 53.7273 157.703 53.5894 157.481 53.4975C157.26 53.4056 156.986 53.352 156.665 53.352M165.138 49.0254H172.818V52.0732H171.369V50.2583H167.548V53.7043H170.767V54.9295H167.548V58.5746H171.369V56.7597H172.818V59.7999H165.138V58.5823H166.153V50.266H165.138V49.0407V49.0254ZM176.342 52.4331H178.043V53.5052H176.342V58.567H177.486V59.7845H173.924V58.567H175.03V53.5052H173.825V52.4331H175.03V51.2844C175.038 50.8556 175.099 50.488 175.213 50.1664C175.328 49.8524 175.488 49.5844 175.694 49.37C175.9 49.1556 176.151 48.9948 176.441 48.8952C176.731 48.788 177.059 48.7421 177.417 48.7421C177.669 48.7421 177.89 48.7497 178.088 48.7804C178.287 48.8033 178.462 48.834 178.622 48.8722C178.775 48.9105 178.912 48.9565 179.034 49.0024C179.156 49.0484 179.263 49.0943 179.354 49.1403L178.95 50.0822C178.798 50.0056 178.599 49.9367 178.363 49.8754C178.119 49.8218 177.867 49.7912 177.6 49.7912C177.211 49.7912 176.899 49.9137 176.677 50.1587C176.456 50.4038 176.342 50.7637 176.342 51.2308V52.4254V52.4331ZM181.612 52.4331H183.305V53.5052H181.612V58.567H182.756V59.7845H179.194V58.567H180.3V53.5052H179.095V52.4331H180.3V51.2844C180.308 50.8556 180.369 50.488 180.483 50.1664C180.598 49.8524 180.758 49.5844 180.964 49.37C181.17 49.1556 181.421 48.9948 181.711 48.8952C182.001 48.788 182.329 48.7421 182.687 48.7421C182.939 48.7421 183.16 48.7497 183.358 48.7804C183.557 48.8033 183.732 48.834 183.892 48.8722C184.045 48.9105 184.182 48.9565 184.304 49.0024C184.426 49.0484 184.533 49.0943 184.624 49.1403L184.22 50.0822C184.068 50.0056 183.877 49.9367 183.633 49.8754C183.389 49.8218 183.137 49.7912 182.87 49.7912C182.481 49.7912 182.169 49.9137 181.947 50.1587C181.726 50.4038 181.612 50.7637 181.612 51.2308V52.4254V52.4331ZM184.403 52.4331H186.79V58.567H187.896V59.7845H184.418V58.567H185.463V53.6583H184.403V52.4331ZM185.219 49.8295C185.219 49.7069 185.242 49.5921 185.296 49.4772C185.349 49.3623 185.41 49.2705 185.494 49.1862C185.578 49.102 185.677 49.0331 185.784 48.9871C185.898 48.9412 186.02 48.9105 186.142 48.9105C186.264 48.9105 186.378 48.9335 186.493 48.9871C186.6 49.0331 186.699 49.102 186.783 49.1862C186.867 49.2705 186.928 49.3623 186.981 49.4772C187.034 49.5921 187.057 49.7069 187.057 49.8295C187.057 49.952 187.034 50.0822 186.981 50.1894C186.935 50.3042 186.867 50.4038 186.783 50.488C186.699 50.5723 186.6 50.6412 186.493 50.6948C186.378 50.7484 186.264 50.7714 186.142 50.7714C186.02 50.7714 185.898 50.7484 185.784 50.6948C185.669 50.6412 185.57 50.5799 185.494 50.488C185.41 50.4038 185.341 50.2966 185.296 50.1894C185.242 50.0745 185.219 49.952 185.219 49.8295ZM194.394 54.3935C194.196 54.0412 193.944 53.7809 193.639 53.6124C193.334 53.4439 192.983 53.3673 192.579 53.3673C192.274 53.3673 191.984 53.4286 191.717 53.5588C191.45 53.689 191.214 53.8728 191.015 54.1025C190.817 54.3399 190.657 54.6232 190.543 54.9678C190.428 55.3048 190.367 55.68 190.367 56.1012C190.367 56.5147 190.428 56.8823 190.543 57.2115C190.657 57.5408 190.817 57.8242 191.023 58.0615C191.229 58.2989 191.458 58.4751 191.725 58.5976C191.992 58.7201 192.274 58.789 192.587 58.789C193.037 58.789 193.433 58.6818 193.769 58.4597C194.104 58.2377 194.371 57.916 194.569 57.4872L195.66 58.0233C195.523 58.3296 195.347 58.5976 195.134 58.8426C194.928 59.0877 194.691 59.2868 194.432 59.4629C194.173 59.6314 193.883 59.7616 193.57 59.8611C193.258 59.953 192.922 59.999 192.579 59.999C192.068 59.999 191.603 59.9071 191.168 59.708C190.733 59.5165 190.367 59.2485 190.055 58.9039C189.742 58.5593 189.498 58.1458 189.322 57.671C189.147 57.1962 189.063 56.6678 189.063 56.1012C189.063 55.5345 189.155 55.0061 189.338 54.5313C189.521 54.0565 189.772 53.643 190.093 53.2984C190.413 52.9538 190.787 52.6858 191.214 52.4944C191.641 52.3029 192.106 52.2034 192.594 52.2034C193.059 52.2034 193.494 52.2876 193.906 52.4484C194.318 52.6092 194.676 52.8543 194.989 53.1836H195.729V54.4011H194.402L194.394 54.3935ZM196.957 52.4331H199.344V58.567H200.45V59.7845H196.972V58.567H198.017V53.6583H196.957V52.4331ZM197.773 49.8295C197.773 49.7069 197.795 49.5921 197.849 49.4772C197.902 49.3623 197.963 49.2705 198.047 49.1862C198.131 49.102 198.23 49.0331 198.337 48.9871C198.451 48.9412 198.573 48.9105 198.695 48.9105C198.817 48.9105 198.932 48.9335 199.046 48.9871C199.161 49.0331 199.252 49.102 199.336 49.1862C199.42 49.2705 199.489 49.3623 199.534 49.4772C199.588 49.5921 199.611 49.7069 199.611 49.8295C199.611 49.952 199.588 50.0822 199.534 50.1894C199.481 50.2966 199.42 50.4038 199.336 50.488C199.252 50.5723 199.161 50.6412 199.046 50.6948C198.939 50.7484 198.817 50.7714 198.695 50.7714C198.573 50.7714 198.444 50.7484 198.337 50.6948C198.223 50.6412 198.123 50.5799 198.047 50.488C197.971 50.3961 197.902 50.2966 197.849 50.1894C197.803 50.0745 197.773 49.952 197.773 49.8295ZM202.905 56.2849C202.905 56.4917 202.921 56.6831 202.951 56.8593C202.982 57.0354 203.027 57.1962 203.081 57.3494C203.256 57.8242 203.538 58.1764 203.92 58.4215C204.301 58.6588 204.736 58.7814 205.224 58.7814C205.605 58.7814 205.979 58.7278 206.337 58.6206C206.696 58.5134 207.077 58.3449 207.474 58.1228L208 59.0264C207.519 59.3557 207.039 59.6008 206.551 59.7616C206.063 59.9224 205.559 60.0066 205.041 60.0066C204.545 60.0066 204.087 59.9224 203.668 59.7539C203.248 59.5854 202.882 59.3404 202.577 59.0188C202.272 58.6895 202.036 58.2836 201.86 57.8012C201.685 57.3111 201.601 56.7444 201.601 56.0935C201.601 55.5651 201.677 55.075 201.822 54.6079C201.967 54.1408 202.188 53.7349 202.478 53.3827C202.768 53.0381 203.126 52.7624 203.554 52.5556C203.981 52.3565 204.484 52.2493 205.056 52.2493C205.628 52.2493 206.07 52.3335 206.436 52.502C206.802 52.6705 207.108 52.8926 207.344 53.1682C207.58 53.4439 207.756 53.7579 207.878 54.1178C208 54.4701 208.084 54.8376 208.129 55.2052C208.152 55.3813 208.168 55.5651 208.175 55.7489C208.175 55.9327 208.183 56.1165 208.183 56.2926H202.905V56.2849ZM204.964 53.352C204.659 53.352 204.392 53.398 204.164 53.4822C203.935 53.5664 203.744 53.6966 203.584 53.8574C203.424 54.0183 203.294 54.2174 203.195 54.4547C203.096 54.6921 203.027 54.9602 202.982 55.2512H206.78C206.764 54.9755 206.719 54.7228 206.65 54.493C206.581 54.2633 206.475 54.0565 206.337 53.8881C206.2 53.7196 206.017 53.5818 205.796 53.4899C205.575 53.398 205.3 53.3444 204.972 53.3444M214.803 58.5593H215.832V55.1975C215.832 54.6309 215.687 54.2097 215.405 53.9187C215.123 53.6277 214.711 53.4822 214.177 53.4822C213.872 53.4822 213.56 53.5588 213.255 53.7043C212.942 53.8498 212.652 54.0336 212.37 54.248V58.5593H213.399V59.7845H209.975V58.5593H210.989V53.6507H209.975V52.4254H212.309V53.2908H212.324C212.477 53.1529 212.644 53.0227 212.82 52.9002C212.995 52.7777 213.178 52.6705 213.377 52.5786C213.567 52.4867 213.773 52.4178 213.979 52.3642C214.185 52.3106 214.406 52.2876 214.643 52.2876C215.032 52.2876 215.39 52.3412 215.703 52.4484C216.023 52.5556 216.29 52.7241 216.511 52.9462C216.732 53.1682 216.908 53.4516 217.022 53.8038C217.144 54.1561 217.205 54.562 217.205 55.0367V58.5593H218.219V59.7845H214.795V58.5593H214.803ZM224.923 54.3858C224.725 54.0336 224.473 53.7732 224.168 53.6047C223.863 53.4363 223.512 53.3597 223.108 53.3597C222.803 53.3597 222.513 53.4209 222.246 53.5511C221.979 53.6813 221.743 53.8651 221.545 54.0948C221.346 54.3322 221.186 54.6156 221.072 54.9602C220.957 55.2971 220.896 55.6723 220.896 56.0935C220.896 56.5147 220.95 56.8746 221.072 57.2039C221.186 57.5332 221.346 57.8165 221.552 58.0539C221.751 58.2913 221.987 58.4674 222.254 58.5899C222.521 58.7125 222.811 58.7814 223.116 58.7814C223.566 58.7814 223.962 58.6742 224.298 58.4521C224.633 58.23 224.9 57.9084 225.099 57.4796L226.189 58.0156C226.044 58.3219 225.877 58.5899 225.663 58.835C225.457 59.08 225.221 59.2791 224.961 59.4553C224.702 59.6237 224.412 59.7539 224.1 59.8535C223.787 59.9454 223.451 59.9913 223.108 59.9913C222.597 59.9913 222.132 59.8994 221.697 59.7003C221.262 59.5089 220.896 59.2408 220.584 58.8962C220.271 58.5516 220.027 58.1381 219.852 57.6633C219.676 57.1886 219.592 56.6602 219.592 56.0935C219.592 55.5268 219.684 54.9984 219.867 54.5237C220.05 54.0489 220.302 53.6354 220.622 53.2908C220.942 52.9462 221.316 52.6781 221.743 52.4867C222.17 52.2953 222.628 52.1957 223.123 52.1957C223.589 52.1957 224.023 52.2799 224.435 52.4408C224.847 52.6016 225.205 52.8466 225.518 53.1759H226.258V54.3935H224.931L224.923 54.3858ZM227.051 52.4254H229.827V53.6507H228.958L230.674 58.3449L232.466 53.6507H231.604V52.4254H234.38V53.6507H233.625L230.369 61.9057H231.375V63.1233H228.416V61.9057H229.309L230.086 59.8841L227.638 53.6507H227.043V52.4254H227.051Z" fill="white"/>
<path d="M37.3474 75C16.687 75 0 58.2448 0 37.5C0 16.7552 16.687 0 37.3474 0C58.0078 0 74.6947 16.7552 74.6947 37.5C74.6947 58.2448 58.0078 75 37.3474 75ZM37.3474 4.78609C19.3868 4.78609 4.76661 19.466 4.76661 37.5C4.76661 55.534 19.3868 70.2139 37.3474 70.2139C55.3079 70.2139 69.9281 55.534 69.9281 37.5C69.9281 19.466 55.3079 4.78609 37.3474 4.78609Z" fill="#F16464"/>
<path d="M52.2795 55.3739C52.2795 55.3739 38.1551 18.7316 38.1398 18.6933C37.9263 18.119 37.3314 17.7667 36.7976 18.0347C36.5306 18.1649 36.3476 18.4253 36.2332 18.6933L22.0935 55.3739C21.6207 56.6527 23.0468 57.61 24.0002 56.6528L36.3857 44.5305C36.6069 44.3085 36.8967 44.2013 37.1789 44.1859C37.4611 44.2013 37.7509 44.3085 37.9721 44.5305L50.3576 56.6528C51.3109 57.61 52.7371 56.6527 52.2643 55.3739" fill="#F16464"/>
</svg>
