<svg width="593" height="162" viewBox="0 0 593 162" fill="none" xmlns="http://www.w3.org/2000/svg">
<path d="M35 161H0.5V1H31.5L78.5 92L123.5 1L155.5 65.5L174.5 103V161H212V103L262.5 1L321 85V1H358V161H327L269 77L268 161H231V66.5L262.5 1L212 103V161H174.5V103L155.5 65.5V161H120V81L86 145H69.5L35 81V161Z" fill="#D9D9D9"/>
<path d="M155.5 65.5V161H120V81L86 145H69.5L35 81V161H0.5V1H31.5L78.5 92L123.5 1M155.5 65.5L174.5 103V161H212V103L262.5 1M155.5 65.5L123.5 1M262.5 1L321 85V1H358V161H327L269 77L268 161H231V66.5L262.5 1ZM227 0.5L195 63.5L163 1H123.5" stroke="black"/>
<path d="M226.5 0.5H263" stroke="black"/>
<path d="M370.436 160.994V1.00355C366.08 1.00221 370.436 1 370.436 1V1.00355C375.438 1.00509 391.932 1.00546 439.715 1C529.099 0.989779 528.424 160.98 439.715 160.994C351.006 161.008 370.436 160.994 370.436 160.994Z" fill="#D9D9D9"/>
<path d="M370.436 160.994V1C370.436 1 350.33 1.01022 439.715 1C529.099 0.989779 528.424 160.98 439.715 160.994C351.006 161.008 370.436 160.994 370.436 160.994Z" stroke="black"/>
<circle cx="533.5" cy="145" r="16" fill="#FF0099"/>
<circle cx="576.5" cy="145" r="16" fill="#D9D9D9"/>
<path d="M406.384 122.997V38.0019C404.395 38.0012 406.384 38 406.384 38V38.0019C408.667 38.0027 416.197 38.0029 438.011 38C478.817 37.9946 478.509 122.989 438.011 122.997C397.513 123.004 406.384 122.997 406.384 122.997Z" fill="white"/>
<path d="M406.384 122.997V38C406.384 38 397.205 38.0054 438.011 38C478.817 37.9946 478.509 122.989 438.011 122.997C397.513 123.004 406.384 122.997 406.384 122.997Z" stroke="black"/>
</svg>
