<svg width="500" height="163" viewBox="0 0 500 163" fill="none" xmlns="http://www.w3.org/2000/svg">
<path d="M36.5 161.5H0.5V1H32.5L79.5 93L125 1H157V161.5H121.5L121 81L86.5 145.5H70.5L36.5 81V161.5Z" fill="white" stroke="black"/>
<path d="M270 162H232.5V1H264L322.5 85.5V1H360V162H329L270 77.5V162Z" fill="white" stroke="black"/>
<path d="M213.5 161.5H175.5V104L125.5 1H164L196.5 64.5L228 1H264L213.5 104V161.5Z" fill="black" stroke="black"/>
<path d="M434.443 0C457.041 5.24978e-05 473.571 10.2401 484.304 25.583C495.011 40.8907 499.928 61.2388 499.471 81.5225C499.014 101.807 493.181 122.138 482.258 137.425C471.318 152.736 455.254 163 434.443 163H365.728V2H364.5C364.488 1.98871 363.506 0.994019 364.5 0H434.443ZM398.5 38.5C398.003 38.9976 398.495 39.4954 398.5 39.5H399.098V125.5H432.949C443.22 125.5 451.135 120.006 456.517 111.838C461.891 103.68 464.76 92.8331 464.985 82.0107C465.21 71.1893 462.792 60.334 457.524 52.167C452.245 43.9817 444.1 38.5 432.949 38.5H398.5Z" fill="#DEDDDD"/>
</svg>
