<svg fill="none" viewBox="0 0 87 19" xmlns="http://www.w3.org/2000/svg">
<g clip-path="url(#clip0_1518_32)">
<path d="M15.8367 0.0033493V18.4842H12.7679L4.14269 7.42353V18.4842H0V0.0033493H2.91246L11.6668 11.2066V0.0033493H15.8367Z" fill="#0F0F13"></path>
<path d="M32.4243 0.00339286V11.4407C32.4243 12.1736 32.2748 12.8114 31.9791 13.3509C31.68 13.8904 31.2654 14.3009 30.7353 14.5791C30.2017 14.8573 29.6036 14.9964 28.9409 14.9964C28.2782 14.9964 27.6461 14.8573 27.1057 14.5791C26.5654 14.3009 26.1304 13.8904 25.8075 13.3509C25.4847 12.8114 25.3216 12.1634 25.3216 11.4136V0H21.1789V11.2032C21.1789 12.652 21.5085 13.948 22.1644 15.0914C22.8203 16.2348 23.7277 17.1339 24.89 17.7887C26.0522 18.4436 27.4014 18.7693 28.9409 18.7693C30.4804 18.7693 31.7718 18.4402 32.9273 17.7887C34.0793 17.1339 34.9799 16.2416 35.6256 15.105C36.2713 13.9718 36.5976 12.6791 36.5976 11.2304V0H32.4243V0.00339286Z" fill="#0F0F13"></path>
<path d="M51.0102 10.752C51.6287 10.64 52.1928 10.4602 52.7128 10.2125C53.6576 9.75786 54.3916 9.12679 54.915 8.31589C55.4383 7.505 55.7 6.54143 55.7 5.42179C55.7 4.37339 55.4417 3.44036 54.9286 2.61929C54.412 1.80161 53.6915 1.15696 52.7638 0.695536C51.836 0.234107 50.7553 0 49.5115 0H41.933V18.4775H46.0756V10.8877H46.4971L51.9991 18.4775H56.9031L51.0068 10.7486H51.0102V10.752ZM46.079 7.80357V3.22321H49.0425C49.8445 3.22321 50.4698 3.44036 50.9184 3.87804C51.3636 4.31232 51.5879 4.86536 51.5879 5.52696C51.5879 6.22589 51.3602 6.77893 50.9048 7.18947C50.4494 7.6 49.8207 7.80696 49.0187 7.80696H46.079V7.80357Z" fill="#0F0F13"></path>
<path d="M80.4756 4.54657L79.7075 3.37603L81.9199 0.00353241H86.8476L82.0388 6.92835L80.4756 4.54657Z" fill="#0F0F13"></path>
<path d="M87.1895 18.4851H82.4419L79.7028 14.2848L80.3485 13.2941L81.9288 10.8783L87.1895 18.4851Z" fill="#0F0F13"></path>
<path d="M80.2571 8.81818L78.2351 11.9192L78.1977 11.9769L73.9496 18.4844H69.2054L75.778 8.97425L69.5453 0.00353241H74.473L78.1977 5.67639L78.3608 5.92746L80.2571 8.81818Z" fill="#4660EC"></path>
<path d="M65.2225 0.00471115H61.0798V3.28919H65.2225V0.00471115Z" fill="#0F0F13"></path>
<path d="M65.2225 3.29037V18.4836H61.0798V7.42626C61.0798 5.14287 62.9354 3.29037 65.2225 3.29037Z" fill="#0F0F13"></path>
</g>
<defs>
<clipPath id="clip0_1518_32">
<rect fill="white" height="19" width="87"></rect>
</clipPath>
</defs>
</svg>