<svg version="1.1" id="Layer_1" xmlns:x="ns_extend;" xmlns:i="ns_ai;" xmlns:graph="ns_graphs;" xmlns="http://www.w3.org/2000/svg" xmlns:xlink="http://www.w3.org/1999/xlink" x="0px" y="0px" viewBox="0 0 233.7 53" style="enable-background:new 0 0 233.7 53;" xml:space="preserve">
 <style type="text/css">
  .st0{clip-path:url(#SVGID_2_);}
	.st1{fill:#26536B;}
	.st2{fill:#00A9DE;}
	.st3{fill:#0B84AE;}
	.st4{fill:#B2F000;}
	.st5{fill:#87B613;}
 </style>
 <metadata>
  <sfw xmlns="ns_sfw;">
   <slices>
   </slices>
   <sliceSourceBounds bottomLeftOrigin="true" height="53" width="233.7" x="-39.7" y="-9">
   </sliceSourceBounds>
  </sfw>
 </metadata>
 <g>
  <defs>
   <rect id="SVGID_1_" width="233.7" height="53">
   </rect>
  </defs>
  <clipPath id="SVGID_2_">
   <use href="#SVGID_1_" style="overflow:visible;">
   </use>
  </clipPath>
  <g class="st0">
   <path class="st1" d="M20.5,15.4h-7.8v15.1c0,1.3,0.3,2.2,0.9,2.8c0.6,0.6,1.5,0.9,2.6,0.9c1.2,0.1,2.6,0.1,4.3,0v6.1
			c-5.2,0.6-9,0.2-11.3-1.4c-2.3-1.5-3.4-4.4-3.4-8.5V15.4H0V8.8h5.8V2l6.8-2v8.8h7.8V15.4z">
   </path>
   <path class="st1" d="M49.4,8.8h6.8v31.5h-6.8v-4.5c-2.6,3.6-6.3,5.4-11.1,5.4c-4.3,0-8-1.6-11.1-4.8c-3.1-3.2-4.6-7.1-4.6-11.8
			c0-4.7,1.5-8.6,4.6-11.8C30.3,9.6,34,8,38.3,8c4.8,0,8.5,1.8,11.1,5.3V8.8z M32.3,31.8c1.9,1.9,4.3,2.9,7.1,2.9
			c2.9,0,5.2-1,7.1-2.9c1.9-1.9,2.8-4.3,2.8-7.2s-1-5.3-2.8-7.2s-4.3-2.9-7.1-2.9c-2.9,0-5.2,1-7.1,2.9c-1.9,1.9-2.8,4.3-2.8,7.2
			S30.4,29.9,32.3,31.8z">
   </path>
   <path class="st1" d="M114.5,8.8h6.8v31.5h-6.8v-4.5c-2.6,3.6-6.3,5.4-11.1,5.4c-4.3,0-8-1.6-11.1-4.8c-3.1-3.2-4.6-7.1-4.6-11.8
			c0-4.7,1.5-8.6,4.6-11.8C95.4,9.6,99.1,8,103.4,8c4.8,0,8.5,1.8,11.1,5.3V8.8z M97.4,31.8c1.9,1.9,4.3,2.9,7.1,2.9
			c2.9,0,5.2-1,7.1-2.9c1.9-1.9,2.8-4.3,2.8-7.2s-1-5.3-2.8-7.2c-1.9-1.9-4.3-2.9-7.1-2.9c-2.9,0-5.2,1-7.1,2.9
			c-1.9,1.9-2.8,4.3-2.8,7.2S95.5,29.9,97.4,31.8z">
   </path>
   <path class="st1" d="M145.9,8c4.3,0,8,1.6,11.1,4.8c3.1,3.2,4.6,7.1,4.6,11.8c0,4.7-1.5,8.6-4.6,11.8c-3.1,3.2-6.8,4.8-11.1,4.8
			c-4.8,0-8.5-1.8-11.1-5.3V53H128V8.8h6.8v4.5C137.4,9.8,141.1,8,145.9,8z M137.7,31.8c1.9,1.9,4.3,2.9,7.1,2.9
			c2.9,0,5.2-1,7.1-2.9c1.9-1.9,2.8-4.3,2.8-7.2s-1-5.3-2.8-7.2c-1.9-1.9-4.3-2.9-7.1-2.9c-2.9,0-5.2,1-7.1,2.9
			c-1.9,1.9-2.8,4.3-2.8,7.2S135.8,29.9,137.7,31.8z">
   </path>
   <path class="st1" d="M191.6,8.8h6.8v31.5h-6.8v-4.5c-2.6,3.6-6.3,5.4-11.1,5.4c-4.3,0-8-1.6-11.1-4.8c-3.1-3.2-4.6-7.1-4.6-11.8
			c0-4.7,1.5-8.6,4.6-11.8c3.1-3.2,6.8-4.8,11.1-4.8c4.8,0,8.5,1.8,11.1,5.3V8.8z M174.5,31.8c1.9,1.9,4.3,2.9,7.1,2.9
			c2.9,0,5.2-1,7.1-2.9c1.9-1.9,2.8-4.3,2.8-7.2s-1-5.3-2.8-7.2c-1.9-1.9-4.3-2.9-7.1-2.9c-2.9,0-5.2,1-7.1,2.9
			c-1.9,1.9-2.8,4.3-2.8,7.2S172.6,29.9,174.5,31.8z">
   </path>
   <path class="st1" d="M226.4,8.8h7.3l-12.1,32.5c-3,8.2-8.2,12-15.4,11.6v-6.4c2.2,0.1,3.9-0.3,5.2-1.4c1.3-1,2.4-2.6,3.2-4.8
			l0.3-0.6l-13.4-31h7.5l9.4,22.9L226.4,8.8z">
   </path>
   <path class="st2" d="M81.1,8.8l-4.6,6.4h0l-3,4.2c-1.5,2.1,0,5.1,2.6,5.1c1,0,2-0.5,2.6-1.3l7-9.8L89,8.8H81.1z">
   </path>
   <path class="st3" d="M62.4,8.8v6.4h14.1l4.6-6.4H62.4z">
   </path>
   <path class="st4" d="M71,33.9l0.9-1.2l2.2-3.1c1.5-2.1,0-5.1-2.6-5.1c-1,0-2,0.5-2.6,1.3l-7.1,9.9l-3.3,4.5h8.2L71,33.9L71,33.9z">
   </path>
   <path class="st5" d="M86.4,33.9H71.1l-4.5,6.4h19.8V33.9z">
   </path>
  </g>
 </g>
</svg>